<svg xmlns="http://www.w3.org/2000/svg" xmlns:xlink="http://www.w3.org/1999/xlink" width="500" zoomAndPan="magnify" viewBox="0 0 375 374.999991" height="500" preserveAspectRatio="xMidYMid meet" version="1.0"><defs><g/></defs><g fill="#ffffff" fill-opacity="1"><g transform="translate(91.870407, 205.293443)"><g><path d="M 3.519531 -34.8125 L 18.324219 -34.8125 L 18.324219 -41.535156 C 18.324219 -41.742188 18.167969 -42.007812 17.800781 -42.007812 L 3.519531 -42.007812 C 3.152344 -42.007812 2.941406 -41.742188 2.941406 -41.535156 L 2.941406 -35.285156 C 2.941406 -35.074219 3.152344 -34.8125 3.519531 -34.8125 Z M 10.34375 -27.617188 L 10.34375 -12.390625 C 10.34375 -12.390625 10.34375 -7.769531 5.777344 -7.769531 L 0.578125 -7.769531 C 0.261719 -7.769531 0 -7.5625 0 -7.296875 L 0 -0.472656 C 0 -0.261719 0.261719 0 0.578125 0 L 5.777344 0 C 5.777344 0 18.324219 0 18.324219 -12.390625 L 18.324219 -27.617188 Z M 10.34375 -27.617188 "/></g></g></g><g fill="#ffffff" fill-opacity="1"><g transform="translate(116.913883, 205.293443)"><g><path d="M 22.683594 -7.824219 L 0 -7.824219 L 0 -0.472656 C 0 -0.261719 0.261719 0 0.578125 0 L 22.683594 0 C 23.050781 0 23.261719 -0.261719 23.261719 -0.472656 L 23.261719 -7.296875 C 23.261719 -7.5625 23.050781 -7.824219 22.683594 -7.824219 Z M 8.035156 -15.855469 L 8.035156 -41.535156 C 8.035156 -41.742188 7.824219 -42.007812 7.507812 -42.007812 L 0.578125 -42.007812 C 0.261719 -42.007812 0 -41.742188 0 -41.535156 L 0 -15.855469 Z M 8.035156 -15.855469 "/></g></g></g><g fill="#ffffff" fill-opacity="1"><g transform="translate(147.154854, 205.293443)"><g><path d="M 19.269531 -23.3125 C 16.277344 -24.730469 13.335938 -24.730469 13.074219 -24.730469 C 10.398438 -24.730469 7.824219 -26.304688 7.824219 -29.351562 C 7.824219 -32.710938 10.1875 -34.445312 13.074219 -34.445312 C 15.804688 -34.445312 18.113281 -33.027344 18.21875 -30.035156 C 18.21875 -29.875 18.484375 -29.613281 18.796875 -29.613281 L 25.359375 -29.613281 C 25.730469 -29.613281 25.992188 -29.875 25.9375 -30.035156 C 25.832031 -37.175781 20.269531 -42.007812 13.074219 -42.007812 C 6.351562 -42.007812 0 -37.226562 0 -29.351562 C 0 -24.46875 2.46875 -20.742188 6.824219 -18.746094 C 9.871094 -17.328125 12.707031 -17.328125 13.074219 -17.328125 C 15.4375 -17.222656 18.324219 -15.332031 18.324219 -12.234375 C 18.324219 -9.453125 15.855469 -7.5625 13.074219 -7.5625 C 13.074219 -7.5625 13.074219 -7.5625 13.023438 -7.5625 L 13.023438 0 C 13.074219 0 13.074219 0 13.074219 0 C 19.796875 0 26.097656 -4.359375 26.097656 -12.234375 C 26.097656 -17.171875 23.679688 -21.265625 19.269531 -23.3125 Z M 19.269531 -23.3125 "/></g></g></g><g fill="#ffffff" fill-opacity="1"><g transform="translate(180.335823, 205.293443)"><g><path d="M 28.667969 -0.683594 C 26.042969 -6.511719 23.207031 -12.285156 20.582031 -18.21875 C 24.785156 -19.742188 28.300781 -23.101562 28.300781 -29.507812 C 28.300781 -41.902344 16.488281 -42.007812 14.125 -42.007812 L 0.523438 -42.007812 C 0.261719 -42.007812 0 -41.742188 0 -41.535156 L 0 -34.390625 L 14.125 -34.390625 C 15.382812 -34.390625 20.320312 -34.128906 20.320312 -29.507812 C 20.320312 -24.886719 15.855469 -24.679688 14.125 -24.679688 L 0 -24.679688 L 0 -0.472656 C 0 -0.261719 0.261719 0 0.523438 0 L 7.402344 0 C 7.71875 0 7.980469 -0.261719 7.980469 -0.472656 L 7.980469 -16.960938 L 12.496094 -16.960938 L 20.164062 -0.316406 C 20.214844 -0.15625 20.53125 0 20.6875 0 L 28.195312 0 C 28.617188 0 28.828125 -0.316406 28.667969 -0.683594 Z M 28.667969 -0.683594 "/></g></g></g><g fill="#ffffff" fill-opacity="1"><g transform="translate(216.299285, 205.293443)"><g><path d="M 32.03125 -34.289062 L 32.03125 -41.535156 C 32.03125 -41.742188 31.820312 -42.007812 31.453125 -42.007812 L 24.625 -42.007812 C 14.175781 -42.007812 0 -38.960938 0 -21.003906 C 0 -2.363281 14.335938 0 24.625 0 L 31.453125 0 C 31.820312 0 32.03125 -0.261719 32.03125 -0.472656 L 32.03125 -26.203125 L 15.910156 -26.203125 L 15.910156 -18.167969 L 23.996094 -18.167969 L 23.996094 -7.667969 C 14.859375 -7.195312 8.085938 -11.027344 8.085938 -21.003906 C 8.085938 -33.972656 18.902344 -34.496094 23.996094 -34.289062 Z M 32.03125 -34.289062 "/></g></g></g><g fill="#ffffff" fill-opacity="1"><g transform="translate(255.727749, 205.293443)"><g><path d="M 19.269531 -23.3125 C 16.277344 -24.730469 13.335938 -24.730469 13.074219 -24.730469 C 10.398438 -24.730469 7.824219 -26.304688 7.824219 -29.351562 C 7.824219 -32.710938 10.1875 -34.445312 13.074219 -34.445312 C 15.804688 -34.445312 18.113281 -33.027344 18.21875 -30.035156 C 18.21875 -29.875 18.484375 -29.613281 18.796875 -29.613281 L 25.359375 -29.613281 C 25.730469 -29.613281 25.992188 -29.875 25.9375 -30.035156 C 25.832031 -37.175781 20.269531 -42.007812 13.074219 -42.007812 C 6.351562 -42.007812 0 -37.226562 0 -29.351562 C 0 -24.46875 2.46875 -20.742188 6.824219 -18.746094 C 9.871094 -17.328125 12.707031 -17.328125 13.074219 -17.328125 C 15.4375 -17.222656 18.324219 -15.332031 18.324219 -12.234375 C 18.324219 -9.453125 15.855469 -7.5625 13.074219 -7.5625 C 13.074219 -7.5625 13.074219 -7.5625 13.023438 -7.5625 L 13.023438 0 C 13.074219 0 13.074219 0 13.074219 0 C 19.796875 0 26.097656 -4.359375 26.097656 -12.234375 C 26.097656 -17.171875 23.679688 -21.265625 19.269531 -23.3125 Z M 19.269531 -23.3125 "/></g></g></g><path stroke-linecap="butt" transform="matrix(-0.746252, -0.000000000000000091, 0.000000000000000092, -0.75, 305.274769, 154.688193)" fill="none" stroke-linejoin="miter" d="M 0.00178459 5.000924 L 84.434136 5.000924 " stroke="#ffffff" stroke-width="10" stroke-opacity="1" stroke-miterlimit="4"/><path stroke-linecap="butt" transform="matrix(0.000000000000000046, -0.745878, 0.75, 0.000000000000000046, 297.778607, 211.281901)" fill="none" stroke-linejoin="miter" d="M 0.000872161 4.998316 L 82.464475 4.998316 " stroke="#ffffff" stroke-width="10" stroke-opacity="1" stroke-miterlimit="4"/><path stroke-linecap="butt" transform="matrix(0.746252, 0, 0, 0.75, 69.716784, 220.304047)" fill="none" stroke-linejoin="miter" d="M -0.00259989 5.000854 L 84.434986 5.000854 " stroke="#ffffff" stroke-width="10" stroke-opacity="1" stroke-miterlimit="4"/><path stroke-linecap="butt" transform="matrix(0.000000000000000046, 0.745878, -0.75, 0.000000000000000046, 77.212939, 163.7104)" fill="none" stroke-linejoin="miter" d="M 0.000721097 4.99746 L 82.464324 4.99746 " stroke="#ffffff" stroke-width="10" stroke-opacity="1" stroke-miterlimit="4"/></svg>